# xmcd
#
# Track frame offsets:
#	150
#	14044
#	29888
#	43995
#	61903
#	77704
#	89286
#	102542
#	118592
#	133661
#	148107
#	166267
#	179867
#	193395
#	208611
#
# Disc length: 2970 seconds
#
# Revision: 0
# Processed by: cddbd v1.5.2PL0 Copyright (c) Steve Scherf et al.
# Submitted via: SynApp - FreeCDDB Version: 2.3
#
DISCID=ed0b980f
DTITLE=Truck Stop - Truck Stop
DYEAR=1960
DGENRE=Country
TTITLE0=1 Nashville Tennessee
TTITLE1=2 Hannas Mann
TTITLE2=3 Der letzte Trip
TTITLE3=4 Amerika
TTITLE4=5 Ich moecht so gern Dave Dudley hoeren
TTITLE5=6 Bleifuss Joe
TTITLE6=7 Die Frau mit dem Gurt
TTITLE7=8 Kopf oder Zahl
TTITLE8=9 Jeden Tag in einer anderen Stadt
TTITLE9=10 Der König von der Autobahn
TTITLE10=11 Sie will zurück nach München
TTITLE11=12 Die Zeiten
TTITLE12=13 Jetzt ist Schluss
TTITLE13=14 Cowboy bei der Bahn
TTITLE14=15 Der Tramp
EXTD=
EXTT0=
EXTT1=
EXTT2=
EXTT3=
EXTT4=
EXTT5=
EXTT6=
EXTT7=
EXTT8=
EXTT9=
EXTT10=
EXTT11=
EXTT12=
EXTT13=
EXTT14=
PLAYORDER=
